# xmcd
#
# Track frame offsets:
#	150
#	13013
#	24638
#	37453
#	52023
#	66284
#	78869
#	92366
#	103853
#	117851
#	128481
#	140297
#	151060
#	163137
#	174542
#	184521
#	195146
#	205253
#	214647
#	224779
#	233192
#	244291
#	254653
#	266343
#	283910
#
# Disc length: 3928 seconds
#
# Revision: 1
# Processed by: cddbd v1.5.2PL0 Copyright (c) Steve Scherf et al.
# Submitted via: audiograbber 1.83.01
#
DISCID=6c0f5619
DTITLE=Brown,Roy - Good rockin' man - The definitive collection [CD 2)
DYEAR=2011
DGENRE=
TTITLE0=Grandpa stole my baby
TTITLE1=Mr. Hound Dog's in town
TTITLE2=Caldonia's wedding day
TTITLE3=Laughing but crying
TTITLE4=Crazy crazy women
TTITLE5=Bootleggin' baby
TTITLE6=Trouble at midnight
TTITLE7=No love at all
TTITLE8=Up jumped the devil
TTITLE9=Ain't it a shame
TTITLE10=Ain't no rockin' no more
TTITLE11=Fannie Brown got married
TTITLE12=Worried life blues
TTITLE13=Black diamond
TTITLE14=Letter to baby
TTITLE15=Saturday night
TTITLE16=Party doll
TTITLE17=Let the four winds blow
TTITLE18=Ain't gonna do it
TTITLE19=Hip shakin' baby
TTITLE20=Adorable one
TTITLE21=Good looking and foxy too
TTITLE22=Ain't got no blues today
TTITLE23=A man with the blues
TTITLE24=Rocking all the times
EXTD=
EXTT0=
EXTT1=
EXTT2=
EXTT3=
EXTT4=
EXTT5=
EXTT6=
EXTT7=
EXTT8=
EXTT9=
EXTT10=
EXTT11=
EXTT12=
EXTT13=
EXTT14=
EXTT15=
EXTT16=
EXTT17=
EXTT18=
EXTT19=
EXTT20=
EXTT21=
EXTT22=
EXTT23=
EXTT24=
PLAYORDER=
